<svg xmlns="http://www.w3.org/2000/svg" width="70" height="70" viewBox="0 0 93 93" fill="none">
  <g clip-path="url(#clip0_46_29)">
    <path fill-rule="evenodd" clip-rule="evenodd" d="M85.25 27.125C85.25 16.4261 76.5739 7.75 65.875 7.75C54.0407 7.75 38.9592 7.75 27.125 7.75C16.4261 7.75 7.75 16.4261 7.75 27.125C7.75 38.9592 7.75 54.0407 7.75 65.875C7.75 76.5739 16.4261 85.25 27.125 85.25C38.9592 85.25 54.0407 85.25 65.875 85.25C76.5739 85.25 85.25 76.5739 85.25 65.875C85.25 54.0407 85.25 38.9592 85.25 27.125Z" fill="url(#paint0_radial_46_29)"/>
    <path d="M57.9622 19.3944C66.0649 19.4719 73.5242 26.4275 73.6056 35.0377C73.6327 42.6792 73.6327 50.3207 73.6056 57.9622C73.5281 66.0339 66.5725 73.5242 57.9622 73.6056C50.3207 73.6327 42.6792 73.6327 35.0377 73.6056C26.9312 73.5281 19.4757 66.5725 19.3944 57.9622C19.3672 50.3207 19.3672 42.6792 19.3944 35.0377C19.468 26.9274 26.4081 19.4757 35.0377 19.3944C42.6792 19.3672 50.3207 19.3672 57.9622 19.3944ZM35.1424 23.0562C28.8532 23.0756 23.1182 28.5277 23.0562 35.061C23.033 42.687 23.033 50.313 23.0562 57.939C23.1144 64.1584 28.4347 69.8817 35.061 69.9437C42.687 69.967 50.313 69.967 57.939 69.9437C64.1739 69.8856 69.8817 64.5652 69.9437 57.939C69.967 50.313 69.967 42.687 69.9437 35.061C69.8856 28.799 64.4606 23.1182 57.939 23.0562C50.3401 23.033 42.7412 23.0562 35.1424 23.0562Z" fill="white"/>
    <path d="M46.593 32.9375C52.8628 32.9956 58.7063 37.8316 59.8533 44.0278C60.6709 48.4453 59.1286 53.2348 55.8736 56.3425C52.2505 59.7913 46.6434 61.0235 41.8384 59.2642C36.4676 57.2996 32.6895 51.6383 32.9414 45.9032C33.2475 39.0522 39.3003 32.9608 46.5 32.9375C46.531 32.9375 46.562 32.9375 46.593 32.9375ZM46.438 36.6071C41.9624 36.6497 37.7425 40.0443 36.8125 44.454C35.8709 48.9141 38.4361 53.8625 42.6483 55.6411C47.2479 57.5864 53.1883 55.4048 55.4086 50.8633C57.7065 46.1706 55.5404 39.7963 50.6889 37.5294C49.3675 36.9133 47.8989 36.6032 46.438 36.6071Z" fill="white"/>
    <path fill-rule="evenodd" clip-rule="evenodd" d="M63.9375 31.8796C63.9375 31.1318 63.6391 30.4149 63.1121 29.8879C62.5851 29.3609 61.8682 29.0625 61.1204 29.0625C61.0622 29.0625 61.0003 29.0625 60.9421 29.0625C60.1943 29.0625 59.4774 29.3609 58.9504 29.8879C58.4234 30.4149 58.125 31.1318 58.125 31.8796C58.125 31.9106 58.125 31.9378 58.125 31.9688C58.125 32.7399 58.4311 33.48 58.9775 34.0225C59.52 34.5689 60.2601 34.875 61.0312 34.875C62.6355 34.875 63.9375 33.573 63.9375 31.9688C63.9375 31.9378 63.9375 31.9106 63.9375 31.8796Z" fill="white"/>
  </g>
  <defs>
    <radialGradient id="paint0_radial_46_29" cx="0" cy="0" r="1" gradientUnits="userSpaceOnUse" gradientTransform="translate(7.75 83.3125) scale(108.24)">
      <stop stop-color="#FF8100"/>
      <stop offset="0.19" stop-color="#FF7209"/>
      <stop offset="0.32" stop-color="#F55E16"/>
      <stop offset="0.48" stop-color="#D92938"/>
      <stop offset="1" stop-color="#9100FF"/>
    </radialGradient>
    <clipPath id="clip0_46_29">
      <rect width="93" height="93" fill="white"/>
    </clipPath>
  </defs>
</svg>